<svg width="601" height="144" viewBox="0 0 601 144" fill="none" xmlns="http://www.w3.org/2000/svg">
<g clip-path="url(#clip0_1114_2692)">
<path d="M220.52 64.2484C217.07 20.5484 169.81 -10.5616 127.51 3.35836C104.5 9.38836 85.1502 36.7284 75.1502 51.0484C69.4202 59.2784 57.0902 59.5484 47.3202 51.5184C42.7102 47.7284 36.4002 43.4084 27.5402 43.3684C-9.13984 43.9884 -9.20984 98.6184 27.5402 99.2484C35.3102 99.2884 40.7702 96.0984 47.2502 91.1784C62.7502 79.3784 77.2702 93.0884 83.8602 102.978C88.6902 110.228 97.1602 122.458 106.82 129.198C154.63 165.838 227.47 124.768 220.52 64.2484ZM148.75 131.378C115.6 131.378 88.7302 104.508 88.7302 71.3584C88.7302 38.2084 115.6 11.3384 148.75 11.3384C181.9 11.3384 208.77 38.2084 208.77 71.3584C208.77 104.508 181.9 131.378 148.75 131.378Z" fill="#141412"/>
<path d="M245.092 35.7206H234.012V2.64062H245.282C252.812 2.64062 256.552 5.85063 256.552 11.2206C256.552 14.8206 254.442 17.0206 251.762 18.2206C255.362 19.3706 257.752 21.6706 257.752 26.1806C257.752 32.5606 252.962 35.7206 245.092 35.7206ZM244.712 8.54062H241.792V16.0206H244.522C247.592 16.0206 249.222 14.5306 249.222 12.1406C249.222 9.93062 247.882 8.54062 244.712 8.54062ZM244.712 21.2906H241.792V29.8206H244.812C248.122 29.8206 250.042 28.4306 250.042 25.6006C250.042 22.7706 248.222 21.2906 244.722 21.2906H244.712Z" fill="#141412"/>
<path d="M264.648 35.7206V2.64062H272.848V35.7206H264.648Z" fill="#141412"/>
<path d="M281.09 35.7206V2.64062H289.29V28.6306H299.45L300.55 35.7306H281.09V35.7206Z" fill="#141412"/>
<path d="M318.1 35.7206H306.5V2.64062H317.91C329.42 2.64062 335.41 9.30062 335.41 19.1306C335.41 28.9606 329.27 35.7206 318.1 35.7206ZM317.67 9.02063H314.7V29.3506H317.67C323.52 29.3506 327.16 26.2806 327.16 19.1906C327.16 12.1006 323.28 9.03062 317.67 9.03062V9.02063Z" fill="#141412"/>
<path d="M361.539 36.0506L350.509 20.3206V35.7106H342.309V2.64062H350.509V16.7806L360.719 2.64062H370.209L358.319 18.0806L370.499 34.7206L361.529 36.0606L361.539 36.0506Z" fill="#141412"/>
<path d="M388.67 36.2506C380.57 36.2506 374.91 31.8906 374.91 22.6306V2.64062H383.16V22.5806C383.16 26.8506 385.08 29.3406 388.77 29.3406C392.46 29.3406 394.38 26.8906 394.38 22.6806V2.64062H402.63V22.5806C402.63 31.7906 396.69 36.2406 388.68 36.2406L388.67 36.2506Z" fill="#141412"/>
<path d="M410.289 35.7206V2.64062H418.489V28.6306H428.649L429.749 35.7306H410.289V35.7206Z" fill="#141412"/>
<path d="M446.92 9.59062V35.7206H438.67V9.59062H429.32V2.64062H455.5L456.65 9.59062H446.92Z" fill="#141412"/>
<path d="M475.729 36.2506C467.629 36.2506 461.969 31.8906 461.969 22.6306V2.64062H470.219V22.5806C470.219 26.8506 472.139 29.3406 475.829 29.3406C479.519 29.3406 481.439 26.8906 481.439 22.6806V2.64062H489.689V22.5806C489.689 31.7906 483.749 36.2406 475.739 36.2406L475.729 36.2506Z" fill="#141412"/>
<path d="M507.562 24.3606H505.502V35.7206H497.352V2.64062H508.902C516.912 2.64062 521.602 6.28062 521.602 13.0906C521.602 17.6906 519.302 20.8106 515.372 22.4906L523.472 34.6706L514.792 36.0606L507.552 24.3606H507.562ZM508.092 8.83062H505.452V18.4706H507.992C511.542 18.4706 513.552 16.7406 513.552 13.5806C513.552 10.4206 511.632 8.83062 508.082 8.83062H508.092Z" fill="#141412"/>
<path d="M528.898 35.7206V2.64062H549.518V9.26062H536.958V15.4906H546.548L547.598 22.0606H536.958V29.0606H549.948V35.7206H528.898Z" fill="#141412"/>
<path d="M577.269 35.7206L564.229 15.9206V35.7206H556.609V2.64062H564.569L576.749 21.1506V2.64062H584.369V35.7206H577.269Z" fill="#141412"/>
<path d="M260.189 89.6794C250.789 89.6794 244.699 82.7794 244.699 72.5594C244.699 62.3394 250.839 55.3494 260.279 55.3494C269.719 55.3494 275.769 62.2494 275.769 72.4694C275.769 82.6894 269.679 89.6794 260.189 89.6794ZM260.239 60.6294C254.579 60.6294 251.179 65.2794 251.179 72.5194C251.179 79.7594 254.579 84.4094 260.239 84.4094C265.899 84.4094 269.349 79.7594 269.349 72.5194C269.349 65.2794 265.899 60.6294 260.239 60.6294ZM252.949 52.6194V47.1094H258.459V52.6194H252.949ZM262.009 52.6194V47.1094H267.519V52.6194H262.009Z" fill="#141412"/>
<path d="M302.239 89.3905L289.099 72.9505V89.0605H282.719V55.9805H289.099V70.5105L301.039 55.9805H308.659L295.429 71.4705L309.239 88.2005L302.239 89.4005V89.3905Z" fill="#141412"/>
<path d="M326.252 89.6816C316.852 89.6816 310.762 82.7816 310.762 72.5616C310.762 62.3416 316.902 55.3516 326.342 55.3516C335.782 55.3516 341.832 62.2516 341.832 72.4716C341.832 82.6916 335.742 89.6816 326.252 89.6816ZM326.302 60.6316C320.642 60.6316 317.242 65.2816 317.242 72.5216C317.242 79.7616 320.642 84.4116 326.302 84.4116C331.962 84.4116 335.412 79.7616 335.412 72.5216C335.412 65.2816 331.962 60.6316 326.302 60.6316Z" fill="#141412"/>
<path d="M348.781 89.0488V55.9688H355.161V83.3887H366.191L367.051 89.0488H348.781Z" fill="#141412"/>
<path d="M385.131 89.6816C375.731 89.6816 369.641 82.7816 369.641 72.5616C369.641 62.3416 375.781 55.3516 385.221 55.3516C394.661 55.3516 400.711 62.2516 400.711 72.4716C400.711 82.6916 394.621 89.6816 385.131 89.6816ZM385.181 60.6316C379.521 60.6316 376.121 65.2816 376.121 72.5216C376.121 79.7616 379.521 84.4116 385.181 84.4116C390.841 84.4116 394.291 79.7616 394.291 72.5216C394.291 65.2816 390.841 60.6316 385.181 60.6316Z" fill="#141412"/>
<path d="M422.609 89.6816C412.109 89.6816 406.359 82.7816 406.359 72.5616C406.359 62.3416 412.449 55.3516 422.519 55.3516C426.739 55.3516 429.949 56.4016 432.589 57.9916L431.679 63.8916C429.189 62.1216 426.209 60.7716 422.569 60.7716C416.099 60.7716 412.839 65.4716 412.839 72.5216C412.839 79.5716 416.199 84.3116 422.859 84.3116C425.159 84.3116 426.789 83.8316 428.419 82.9716V75.6416H421.709L420.939 70.5616H434.219V86.3316C431.099 88.3416 427.029 89.6916 422.619 89.6916L422.609 89.6816Z" fill="#141412"/>
<path d="M442.172 89.0488V55.9688H448.552V89.0488H442.172Z" fill="#141412"/>
<path d="M466.002 89.4398C461.972 89.4398 458.522 88.5298 455.602 87.0898L456.562 81.3398C459.342 82.9698 462.792 84.2598 466.102 84.2598C469.022 84.2598 471.042 82.8198 471.042 80.2298C471.042 77.7798 469.892 76.7798 465.102 74.7198C458.682 72.0798 456.092 69.9698 456.092 64.8398C456.092 58.9898 460.602 55.5898 466.782 55.5898C470.522 55.5898 473.112 56.3598 475.512 57.5998L474.552 63.3498C472.152 61.7698 469.322 60.7598 466.742 60.7598C463.582 60.7598 462.192 62.2898 462.192 64.3098C462.192 66.3298 463.242 67.4298 467.852 69.3398C474.662 72.1198 477.152 74.4698 477.152 79.5998C477.152 86.0698 472.402 89.4298 466.032 89.4298L466.002 89.4398Z" fill="#141412"/>
<path d="M497.982 89.6284C488.392 89.6284 482.352 82.8684 482.352 72.5584C482.352 62.2484 488.532 55.3984 498.172 55.3984C501.912 55.3984 504.792 56.2584 507.232 57.7984L506.322 63.7884C504.162 62.1584 501.622 60.8684 498.412 60.8684C492.422 60.8684 488.822 65.3784 488.822 72.5184C488.822 79.6584 492.562 84.1184 498.502 84.1184C501.622 84.1184 504.352 82.9184 506.892 81.2384L507.752 86.7984C505.162 88.4784 501.762 89.6284 497.972 89.6284H497.982Z" fill="#141412"/>
<path d="M534.84 89.0488V74.7188H520.79V89.0488H514.41V55.9688H520.79V69.0587H534.84V55.9688H541.22V89.0488H534.84Z" fill="#141412"/>
<path d="M549.461 89.0488V55.9688H568.681V61.3387H555.741V69.2487H565.711L566.571 74.5687H555.741V83.6787H569.161V89.0488H549.461Z" fill="#141412"/>
<path d="M584.701 76.3887H582.021V89.0488H575.691V55.9688H585.951C593.331 55.9688 597.791 59.4687 597.791 65.8887C597.791 70.7287 595.201 73.7488 591.081 75.1888L600.041 88.1787L593.331 89.3787L584.701 76.3887ZM585.471 61.0487H581.971V71.5488H585.181C589.111 71.5488 591.561 69.6788 591.561 66.2288C591.561 62.7788 589.451 61.0487 585.471 61.0487Z" fill="#141412"/>
<path d="M238.708 112.331V124.121H249.348L249.828 127.091H238.708V142.381H235.398V109.301H251.988V112.321H238.708V112.331Z" fill="#141412"/>
<path d="M272.27 143.01C263.45 143.01 257.41 136.01 257.41 125.89C257.41 115.77 263.55 108.68 272.37 108.68C281.19 108.68 287.28 115.68 287.28 125.8C287.28 135.92 281.19 143.01 272.27 143.01ZM272.32 111.66C265.37 111.66 260.81 117.41 260.81 125.8C260.81 134.19 265.41 140.04 272.36 140.04C279.31 140.04 283.87 134.29 283.87 125.9C283.87 117.51 279.27 111.66 272.32 111.66Z" fill="#141412"/>
<path d="M303.529 127.959H299.169V142.389H295.859V109.309H304.249C310.819 109.309 314.889 112.709 314.889 118.419C314.889 123.549 311.489 126.569 307.169 127.529L317.529 141.959L314.079 142.729L303.529 127.959ZM304.059 112.229H299.169V125.129H303.529C308.419 125.129 311.539 122.779 311.539 118.609C311.539 114.439 308.999 112.229 304.059 112.229Z" fill="#141412"/>
<path d="M331.579 142.772C328.029 142.772 325.009 141.862 322.809 140.712L323.289 137.352C325.299 138.642 328.369 139.842 331.729 139.842C335.609 139.842 338.539 137.632 338.539 133.892C338.539 130.632 336.909 129.002 331.879 126.802C325.549 124.022 323.249 121.912 323.249 117.262C323.249 112.272 327.279 108.922 332.739 108.922C335.859 108.922 338.299 109.642 340.029 110.652L339.549 113.962C337.679 112.712 335.379 111.852 332.599 111.852C328.719 111.852 326.559 114.202 326.559 117.082C326.559 119.962 328.139 121.492 333.269 123.742C339.359 126.422 341.899 128.822 341.899 133.662C341.899 139.322 337.389 142.772 331.589 142.772H331.579Z" fill="#141412"/>
<path d="M363.408 143.01C354.448 143.01 348.398 136.11 348.398 125.89C348.398 115.67 354.538 108.68 363.648 108.68C367.388 108.68 370.458 109.78 372.948 111.51L372.418 114.87C369.828 112.95 366.948 111.66 363.598 111.66C356.308 111.66 351.808 117.41 351.808 125.8C351.808 134.19 356.358 139.99 363.558 139.99C367.108 139.99 370.318 138.6 373.008 136.54L373.488 139.7C370.998 141.57 367.348 143.01 363.418 143.01H363.408Z" fill="#141412"/>
<path d="M403.389 142.389V126.569H385.029V142.389H381.719V109.309H385.029V123.599H403.389V109.309H406.699V142.389H403.389Z" fill="#141412"/>
<path d="M428.608 142.911C420.838 142.911 416.238 137.731 416.238 130.011V109.301H419.548V129.581C419.548 135.721 422.568 139.941 428.658 139.941C434.748 139.941 437.818 136.061 437.818 129.781V109.311H441.128V129.781C441.128 137.791 436.378 142.921 428.618 142.921L428.608 142.911Z" fill="#141412"/>
<path d="M473.1 142.389L453.78 114.539V142.389H450.66V109.309H453.78L472.53 136.299V109.309H475.65V142.389H473.11H473.1Z" fill="#141412"/>
<path d="M499.749 143.01C489.969 143.01 484.219 136.01 484.219 125.89C484.219 115.77 490.209 108.68 499.469 108.68C503.539 108.68 506.709 109.78 509.249 111.56L508.669 114.96C506.219 113 503.199 111.65 499.419 111.65C492.039 111.65 487.629 117.31 487.629 125.84C487.629 134.37 492.039 140.03 499.809 140.03C502.929 140.03 505.179 139.26 507.389 137.92V128.04H499.429L498.949 125.02H510.649V139.64C507.629 141.65 504.029 143 499.769 143L499.749 143.01Z" fill="#141412"/>
<path d="M182.958 57.2395C182.958 57.2395 182.888 57.1995 182.858 57.1895C182.668 57.0795 182.468 56.9895 182.268 56.8995C180.238 55.9995 172.518 55.4895 167.968 51.3295C164.958 48.5795 163.468 41.5995 163.038 39.5895C163.018 39.5295 163.008 39.4595 162.998 39.3995C161.908 32.6595 156.058 27.5195 149.008 27.5195C141.958 27.5195 136.328 32.4795 135.088 39.0395C135.088 39.0495 135.078 39.0595 135.078 39.0695C134.928 39.5195 133.468 48.1895 130.028 51.3295C125.478 55.4895 117.758 55.9995 115.728 56.8995C110.198 58.8295 106.238 64.0895 106.238 70.2695C106.238 75.3095 108.868 79.7295 112.828 82.2295C113.098 82.4095 113.378 82.5795 113.658 82.7295C113.888 82.8695 114.138 82.9995 114.388 83.1195C119.258 85.4695 126.948 86.5695 129.778 89.9095C132.878 93.5595 134.938 103.18 136.638 105.77C136.658 105.8 136.678 105.83 136.698 105.86C139.128 110.14 143.738 113.02 149.008 113.02C154.278 113.02 159.058 110.02 161.458 105.62C161.508 105.53 161.558 105.42 161.618 105.32C161.868 104.86 162.108 104.28 162.368 103.62C163.878 99.7295 165.708 92.8595 168.218 89.9095C171.048 86.5695 178.738 85.4695 183.608 83.1195C184.968 82.4595 186.038 81.6595 186.888 80.7795C186.908 80.7695 186.908 80.7595 186.918 80.7595C189.768 78.1695 191.558 74.4295 191.558 70.2695C191.558 64.4195 188.018 59.3995 182.958 57.2395ZM148.628 112.07C148.628 112.07 148.608 112.05 148.578 112.01C148.738 112.02 148.878 112.04 148.988 112.05C148.758 112.07 148.628 112.07 148.628 112.07ZM149.368 112.07C149.368 112.07 149.238 112.07 149.008 112.05C149.118 112.04 149.258 112.02 149.418 112.01C149.388 112.05 149.368 112.07 149.368 112.07ZM158.948 80.2695C156.378 82.8495 152.818 84.4395 148.898 84.4395C144.978 84.4395 141.588 82.9095 139.038 80.4495C136.378 77.8695 134.728 74.2595 134.728 70.2695C134.728 65.7295 136.868 61.6895 140.188 59.0995C142.588 57.2195 145.618 56.0995 148.898 56.0995C152.178 56.0995 155.388 57.2895 157.828 59.2695C161.028 61.8595 163.078 65.8195 163.078 70.2695C163.078 74.1795 161.498 77.7095 158.948 80.2695Z" fill="#141412"/>
<path d="M151.698 97.9805V98.0005C151.598 98.0105 151.498 98.0205 151.398 98.0205C151.498 98.0105 151.598 98.0005 151.698 97.9805Z" fill="#FBF312"/>
</g>
<defs>
<clipPath id="clip0_1114_2692">
<rect width="600.04" height="143.04" fill="white"/>
</clipPath>
</defs>
</svg>
