<svg width="106" height="89" viewBox="0 0 106 89" fill="none" xmlns="http://www.w3.org/2000/svg">
<path d="M105.468 72.1859C104.939 71.452 103.902 71.2758 103.15 71.7945C103.017 71.8891 89.7069 81.055 81.9677 82.3956C77.2317 83.2144 73.8227 82.911 70.8527 81.8639C70.9558 81.6519 71.0123 81.4171 71.0123 81.1659V66.8788C81.9577 66.7614 92.3576 66.6146 92.5505 66.6113C93.0893 66.6048 93.5915 66.3406 93.8941 65.9068C94.2001 65.4729 94.2733 64.9184 94.0871 64.4226L70.8061 1.97355C70.5667 1.3277 69.9414 0.900391 69.243 0.900391H69.2263C68.5213 0.910176 67.896 1.35053 67.6699 2.00617L60.4395 22.8073C60.1435 23.6587 60.6091 24.585 61.4771 24.8753C62.3452 25.1689 63.293 24.7122 63.589 23.8576L69.2995 7.42745L90.1592 63.382C82.7093 63.4832 59.5082 63.7833 49.9764 63.7474L50.9076 60.8541C51.1836 59.9962 50.6981 59.0796 49.82 58.8089C48.9453 58.5381 48.0108 59.0144 47.7347 59.8722L46.1283 64.8695C45.972 65.3587 46.0585 65.897 46.3645 66.3145C46.6738 66.732 47.1627 66.9832 47.6882 66.9897C48.7092 67.006 50.0961 67.0125 51.749 67.0125C55.8997 67.0125 61.7299 66.9701 67.6865 66.9114V80.4124C67.1676 80.1254 66.6521 79.8122 66.1333 79.4828C64.783 78.6216 63.5292 77.7866 62.3186 76.9776C56.5782 73.158 51.779 69.958 43.5109 68.7283V55.2501C45.829 56.3429 48.3966 56.917 50.9974 56.917C60.2931 56.917 67.8561 49.7473 67.8561 40.9369C67.8561 33.4248 62.4483 27.0902 54.9485 25.4005C55.5239 23.9 55.8232 22.2984 55.8232 20.6805C55.8232 13.2826 49.6837 7.26109 42.1407 7.26109C34.5976 7.26109 28.4548 13.2826 28.4548 20.6805C28.4548 20.9643 28.4648 21.2481 28.4847 21.5319C19.505 23.3357 12.9231 30.9066 12.9231 39.7496C12.9231 50.0213 21.7433 58.3783 32.5855 58.3783C35.2362 58.3783 37.8038 57.889 40.1851 56.9398V68.3564C38.7317 68.2455 37.1752 68.1868 35.5023 68.1868C15.8232 68.1868 1.40571 85.0802 0.800406 85.8011C0.218383 86.4958 0.318159 87.5233 1.02656 88.0974C1.33587 88.3453 1.71169 88.4693 2.08418 88.4693C2.5631 88.4693 3.0387 88.2671 3.36796 87.8756C3.50432 87.7093 17.3764 71.4487 35.5023 71.4487C48.0973 71.4487 53.2789 74.8998 60.4494 79.6785C61.6767 80.494 62.9438 81.3388 64.3207 82.2162C69.1665 85.3053 74.122 87.0634 82.5464 85.6086C91.0106 84.1408 104.497 74.8541 105.069 74.4594C105.817 73.9408 105.997 72.9231 105.468 72.1859ZM41.848 23.277C40.9301 23.277 40.1851 24.0077 40.1851 24.908V43.2366L27.3606 35.5809C26.5757 35.1144 25.5547 35.3558 25.0758 36.1256C24.6002 36.8954 24.8463 37.9001 25.6312 38.3665L40.1851 47.0562V53.3582C37.857 54.5162 35.2728 55.1164 32.5855 55.1164C23.5758 55.1164 16.249 48.224 16.249 39.7496C16.249 32.0222 22.3885 25.469 30.5301 24.51C30.9891 24.4546 31.4015 24.2164 31.6742 23.8511C31.9469 23.489 32.05 23.0291 31.9669 22.5855C31.8438 21.9527 31.7807 21.3101 31.7807 20.6805C31.7807 15.0799 36.4269 10.523 42.1407 10.523C47.8545 10.523 52.4973 15.0799 52.4973 20.6805C52.4973 22.4942 52.0018 24.2751 51.0672 25.8343C50.7779 26.3138 50.7579 26.9075 51.0173 27.4033C51.2768 27.9024 51.7756 28.2351 52.341 28.2873C59.2887 28.9299 64.5303 34.3675 64.5303 40.9369C64.5303 47.95 58.4573 53.6551 50.9974 53.6551C48.6061 53.6551 46.2547 53.0581 44.1927 51.9263C43.9799 51.8088 43.747 51.7436 43.5109 51.7273V41.0707L52.3211 35.4113C53.0893 34.9187 53.3055 33.9075 52.8 33.154C52.2978 32.4005 51.2668 32.1885 50.4985 32.6843L43.5109 37.1694V24.908C43.5109 24.0077 42.7659 23.277 41.848 23.277Z" fill="white"/>
</svg>
