<svg width="133" height="104" viewBox="0 0 133 104" fill="none" xmlns="http://www.w3.org/2000/svg">
<path d="M121.425 80.37C119.436 80.37 117.563 80.8829 115.931 81.7812L92.9883 47.9791C94.2668 46.7556 95.2615 45.2372 95.869 43.5343L109.982 46.6886C109.972 46.8696 109.969 47.0506 109.969 47.235C109.969 53.5804 115.11 58.7426 121.425 58.7426C127.741 58.7426 132.885 53.5804 132.885 47.235C132.885 40.8896 127.744 35.7308 121.425 35.7308C116.448 35.7308 112.202 38.9353 110.627 43.3969L96.5233 40.246C96.5333 40.0549 96.5366 39.8605 96.5366 39.6627C96.5366 36.4414 95.2114 33.5285 93.0818 31.4401L100.162 21.7795C101.764 22.641 103.597 23.1271 105.539 23.1271C111.858 23.1271 116.999 17.9649 116.999 11.6195C116.999 5.27404 111.858 0.115234 105.539 0.115234C99.2204 0.115234 94.0798 5.27739 94.0798 11.6195C94.0798 14.8106 95.3783 17.7034 97.478 19.7884L90.3813 29.4658C88.7957 28.6278 86.9898 28.1551 85.0771 28.1551C82.1396 28.1551 79.4592 29.268 77.433 31.0982L59.8715 17.0565C60.7394 15.4375 61.2335 13.5871 61.2335 11.6195C61.2335 5.27739 56.0929 0.115234 49.774 0.115234C43.455 0.115234 38.3144 5.27739 38.3144 11.6195C38.3144 17.9615 43.455 23.1271 49.774 23.1271C52.9384 23.1271 55.8058 21.8332 57.8787 19.7448L75.2967 33.676C74.9762 34.1989 74.6958 34.7486 74.4655 35.3218L23.0028 23.8477C23.0229 23.5729 23.0329 23.2947 23.0329 23.0164C23.0329 16.6744 17.8956 11.5122 11.5767 11.5122C5.25778 11.5122 0.117188 16.6744 0.117188 23.0164C0.117188 29.3585 5.25778 34.524 11.5767 34.524C16.4569 34.524 20.6295 31.4468 22.2785 27.1227L73.671 38.5767C73.6343 38.9353 73.6176 39.2973 73.6176 39.6627V39.6795L22.4721 48.3613C20.9833 43.7489 16.6639 40.4035 11.5767 40.4035C5.25778 40.4035 0.117188 45.5657 0.117188 51.9111C0.117188 58.2565 5.25778 63.4153 11.5767 63.4153C17.8956 63.4153 23.0329 58.2532 23.0329 51.9111C23.0329 51.8307 23.0329 51.7502 23.0295 51.6664L74.1083 42.998C74.3053 43.6517 74.5589 44.2785 74.8594 44.8752L20.4726 84.6338C18.3696 82.0326 15.1651 80.37 11.5767 80.37C5.25778 80.37 0.117188 85.5322 0.117188 91.8776C0.117188 98.223 5.25778 103.382 11.5767 103.382C17.8956 103.382 23.0329 98.223 23.0329 91.8776C23.0329 90.339 22.7291 88.8708 22.1817 87.5266L76.7954 47.6071C77.9204 48.7903 79.2923 49.7323 80.8245 50.349L73.5742 80.6214C72.8065 80.4572 72.0087 80.37 71.1909 80.37C64.8753 80.37 59.7347 85.5322 59.7347 91.8776C59.7347 98.223 64.8753 103.382 71.1909 103.382C77.5064 103.382 82.6504 98.223 82.6504 91.8776C82.6504 87.5434 80.2537 83.7656 76.722 81.8047L84.069 51.1267C84.4028 51.1569 84.7366 51.1703 85.0771 51.1703C86.9464 51.1703 88.7089 50.7211 90.2678 49.9233L113.267 83.8059C111.231 85.8808 109.969 88.7367 109.969 91.8776C109.969 98.223 115.11 103.382 121.425 103.382C127.741 103.382 132.885 98.223 132.885 91.8776C132.885 85.5322 127.744 80.37 121.425 80.37ZM113.921 44.1344C115.136 41.1711 118.044 39.0828 121.425 39.0828C125.905 39.0828 129.547 42.7399 129.547 47.235C129.547 51.7301 125.905 55.3905 121.425 55.3905C116.945 55.3905 113.414 51.8407 113.31 47.4328C113.307 47.3691 113.307 47.302 113.307 47.235C113.307 46.1389 113.524 45.0897 113.921 44.1344ZM97.4179 11.6195C97.4179 7.12437 101.06 3.46728 105.539 3.46728C110.019 3.46728 113.661 7.12437 113.661 11.6195C113.661 16.1146 110.016 19.775 105.539 19.775C104.338 19.775 103.196 19.5102 102.171 19.0376C101.14 18.5683 100.229 17.8844 99.4841 17.0498C98.199 15.6051 97.4179 13.7044 97.4179 11.6195ZM57.1978 14.9179C56.7405 15.957 56.0728 16.8822 55.2484 17.6431C53.803 18.9638 51.8836 19.775 49.774 19.775C45.2976 19.775 41.6525 16.1179 41.6525 11.6195C41.6525 7.12102 45.2976 3.46728 49.774 3.46728C54.2503 3.46728 57.8954 7.12437 57.8954 11.6195C57.8954 12.7927 57.6484 13.9089 57.1978 14.9179ZM19.6915 23.1103C19.6815 24.2768 19.4211 25.3863 18.9671 26.3852C17.6887 29.2077 14.858 31.172 11.5767 31.172C7.09704 31.172 3.45523 27.5149 3.45523 23.0164C3.45523 18.518 7.09704 14.8643 11.5767 14.8643C16.0564 14.8643 19.6948 18.5213 19.6948 23.0164C19.6948 23.0466 19.6948 23.0801 19.6915 23.1103ZM19.6882 52.2329C19.5179 56.5805 15.9462 60.0633 11.5767 60.0633C7.2072 60.0633 3.45523 56.4062 3.45523 51.9111C3.45523 47.416 7.09704 43.7556 11.5767 43.7556C15.0049 43.7556 17.9457 45.9009 19.1307 48.9278C19.4945 49.8529 19.6948 50.8586 19.6948 51.9111C19.6948 52.0184 19.6915 52.1256 19.6882 52.2329ZM11.5767 100.03C7.09704 100.03 3.45523 96.3727 3.45523 91.8776C3.45523 87.3825 7.09704 83.7221 11.5767 83.7221C14.0569 83.7221 16.28 84.845 17.7688 86.6115C18.4931 87.4697 19.0472 88.4786 19.3644 89.5882C19.5813 90.3155 19.6948 91.0832 19.6948 91.8776C19.6948 96.3727 16.053 100.03 11.5767 100.03ZM79.3123 91.8776C79.3123 96.3727 75.6705 100.03 71.1909 100.03C66.7112 100.03 63.0727 96.3727 63.0727 91.8776C63.0727 87.3825 66.7145 83.7221 71.1909 83.7221C71.7383 83.7221 72.2757 83.7757 72.7931 83.8829C73.9314 84.1109 74.9862 84.5802 75.9008 85.2405C77.9638 86.7154 79.3123 89.1423 79.3123 91.8776ZM91.0723 45.1567C90.3179 45.9847 89.3966 46.6584 88.3618 47.1177C87.357 47.5702 86.2454 47.8183 85.0771 47.8183C85.007 47.8183 84.9336 47.8182 84.8635 47.8115C83.7052 47.7847 82.6036 47.5099 81.6156 47.0406C80.8445 46.6719 80.1435 46.1892 79.5293 45.6093C78.7115 44.845 78.0539 43.9098 77.6099 42.8639C77.5465 42.7231 77.4898 42.579 77.4397 42.4315C77.1259 41.5667 76.9557 40.6348 76.9557 39.6627C76.9557 39.5454 76.959 39.4281 76.9657 39.3107C76.9657 39.2437 76.969 39.1767 76.9757 39.1096C77.0458 38.0202 77.3329 36.9911 77.7902 36.0626C77.8369 35.9688 77.8836 35.8749 77.9337 35.7844C78.4711 34.7888 79.2122 33.9173 80.0968 33.2301C81.472 32.1508 83.2011 31.5072 85.0771 31.5072C86.2488 31.5072 87.3637 31.7586 88.3684 32.2111C89.4032 32.6703 90.3245 33.3407 91.0756 34.1721C92.3607 35.5833 93.1585 37.4504 93.1953 39.5018C93.1986 39.5555 93.1986 39.6091 93.1986 39.6627C93.1986 40.7722 92.9749 41.8315 92.571 42.7969C92.2105 43.6718 91.6998 44.4662 91.0723 45.1567ZM121.425 100.03C116.949 100.03 113.307 96.3727 113.307 91.8776C113.307 89.8898 114.018 88.0663 115.196 86.6517C115.917 85.7869 116.809 85.0763 117.823 84.5701C118.908 84.0271 120.133 83.7221 121.425 83.7221C125.905 83.7221 129.547 87.3791 129.547 91.8776C129.547 96.376 125.905 100.03 121.425 100.03Z" fill="white"/>
</svg>
