<svg width="114" height="105" viewBox="0 0 114 105" fill="none" xmlns="http://www.w3.org/2000/svg">
<path d="M101.138 34.191C98.5831 31.3121 95.2915 28.2633 91.1416 25.531V23.2852C91.1416 22.2389 91.9802 21.3926 93.0168 21.3926H99.8211C100.554 24.4714 103.301 26.7672 106.573 26.7672C110.402 26.7672 113.519 23.6217 113.519 19.7566C113.519 15.8914 110.402 12.7459 106.573 12.7459C103.324 12.7459 100.587 15.0117 99.8343 18.0605H93.0168C90.1611 18.0605 87.8402 20.403 87.8402 23.2852V23.5318C80.5044 19.46 70.8972 16.5111 58.5332 16.6811V11.5064C58.5332 10.4635 59.3751 9.61381 60.4085 9.61381H88.035C88.8207 12.6126 91.5312 14.8318 94.7468 14.8318C98.5798 14.8318 101.693 11.6863 101.693 7.82117C101.693 3.956 98.5798 0.810547 94.7468 0.810547C91.442 0.810547 88.6688 3.15297 87.9755 6.28176H60.4085C57.556 6.28176 55.2318 8.62752 55.2318 11.5064V16.7944C54.829 16.8144 54.4295 16.8377 54.0334 16.8643C31.9302 18.3238 19.3154 27.3903 12.554 34.924C4.84845 43.5107 2.9039 51.8608 2.82467 52.214L2.72892 52.6272L2.84448 53.037C2.95342 53.4169 5.55826 62.4634 13.5676 71.4632C16.0602 74.2621 19.2527 77.2343 23.2639 79.9166V82.0458C23.2639 83.0887 22.4253 83.9384 21.392 83.9384H14.5877C13.8581 80.8562 11.1047 78.5605 7.83296 78.5605C4.00328 78.5605 0.886719 81.7059 0.886719 85.5711C0.886719 89.4363 4.00328 92.5817 7.83296 92.5817C11.0816 92.5817 13.8185 90.3193 14.5712 87.2704H21.392C24.2444 87.2704 26.5654 84.9247 26.5654 82.0458V81.9492C33.7658 86.0076 43.1782 89.0064 55.2879 89.0064C55.4827 89.0064 55.6775 89.0064 55.8723 89.0031V93.8212C55.8723 94.8642 55.0304 95.7138 53.9971 95.7138H26.3739C25.5881 92.715 22.8743 90.4959 19.6587 90.4959C15.8291 90.4959 12.7125 93.6413 12.7125 97.5065C12.7125 101.372 15.8291 104.517 19.6587 104.517C22.9635 104.517 25.74 102.175 26.4333 99.0459H53.9971C56.8528 99.0459 59.1737 96.7035 59.1737 93.8212V88.9065C59.7713 88.8798 60.3622 88.8432 60.9466 88.7965C60.9796 88.7965 61.0093 88.7965 61.039 88.7899C81.3198 87.3104 93.8488 78.4638 100.901 71.06C109.045 62.51 111.789 54.1599 111.904 53.8067L112.056 53.3302L111.924 52.8471C111.815 52.4606 109.21 43.2808 101.138 34.191ZM103.344 18.0605C103.951 16.8843 105.173 16.078 106.573 16.078C108.583 16.078 110.217 17.7307 110.217 19.7566C110.217 21.7824 108.583 23.4351 106.573 23.4351C105.146 23.4351 103.908 22.6021 103.311 21.3926C103.066 20.8994 102.931 20.343 102.931 19.7566C102.931 19.1701 103.08 18.567 103.344 18.0605ZM91.442 6.28176C92.0198 5.02225 93.2842 4.14259 94.7468 4.14259C96.7574 4.14259 98.3916 5.79529 98.3916 7.82117C98.3916 9.84705 96.7574 11.4997 94.7468 11.4997C93.3833 11.4997 92.1915 10.74 91.5675 9.61381C91.2737 9.08401 91.1053 8.47425 91.1053 7.82117C91.1053 7.27138 91.2242 6.75158 91.442 6.28176ZM11.0651 87.2704C10.4543 88.4467 9.23277 89.2497 7.83296 89.2497C5.82238 89.2497 4.18816 87.6003 4.18816 85.5711C4.18816 83.5419 5.82238 81.8925 7.83296 81.8925C9.25918 81.8925 10.5005 82.7289 11.0981 83.9384C11.3424 84.4315 11.4778 84.9847 11.4778 85.5711C11.4778 86.1575 11.3292 86.764 11.0651 87.2704ZM22.9701 99.0459C22.3923 100.309 21.1246 101.185 19.6587 101.185C17.6482 101.185 16.0139 99.5357 16.0139 97.5065C16.0139 95.4773 17.6482 93.8279 19.6587 93.8279C21.0222 93.8279 22.2141 94.5909 22.838 95.7138C23.1352 96.2436 23.3035 96.8567 23.3035 97.5065C23.3035 98.0563 23.1847 98.5761 22.9701 99.0459ZM26.5654 78.154C26.4168 78.064 26.2682 77.9707 26.123 77.8774C22.465 75.5516 19.1272 72.7061 16.1196 69.344C9.51339 61.9636 6.75339 54.3732 6.15252 52.5405C6.63784 50.8145 8.86631 43.9405 15.1225 37.0265C20.6426 30.9256 27.8562 26.3873 36.4565 23.5384C27.4501 30.1059 21.5802 40.7951 21.5802 52.8404C21.5802 65.6521 28.2227 76.9278 38.2129 83.3486C34.0332 82.1091 30.1474 80.3764 26.5654 78.154ZM55.8723 85.6077C38.6486 84.8081 24.8816 70.417 24.8816 52.8404C24.8816 35.2639 37.8332 21.7391 54.3305 20.1831C54.6276 20.1531 54.9314 20.1264 55.2318 20.1097V24.668H50.4843L49.1439 33.188L48.685 33.4946L42.1845 27.9301L31.5406 36.9466L36.9715 44.2604L36.889 44.5103L28.0873 46.5662V59.1846L36.4631 60.844L36.6711 61.2372L31.6727 68.7876L42.2406 77.7408L48.7577 72.3029L49.0911 72.5195L50.623 81.0129H55.8723V85.6077ZM53.3764 77.6808L52.0822 70.4969L48.5101 68.1845L42.2571 73.4025L36.0603 68.1545L40.5173 61.4271L38.6321 57.8785L31.3888 56.4424V49.2152L39.4608 47.3326L40.6361 43.6406L36.0537 37.4697L42.1746 32.2884L48.4407 37.6596L52.1747 35.1539L53.3038 28H61.4583L62.7525 35.1839L66.328 37.4964L72.5776 32.2784L78.7117 37.4697L74.1326 43.6406L75.3079 47.3326L83.3766 49.2152V56.4424L76.1101 57.8818L74.0996 61.9002L78.781 68.2078L72.6634 73.3925L66.394 68.0212L62.66 70.5236L61.5343 77.6808H53.3764ZM60.5603 85.4878C60.1014 85.5344 59.6392 85.5711 59.1737 85.5944V81.0129H64.3504L65.6941 72.4895L66.153 72.1829L72.6502 77.7508L83.2974 68.7343L77.9688 61.557L78.3287 60.8407L86.6781 59.1846V46.5662L77.8764 44.5103L77.7972 44.2604L83.2281 36.9466L72.5941 27.9401L66.0803 33.3779L65.7436 33.1614L64.215 24.668H58.5332V20.0598C75.922 20.6695 89.8838 35.1373 89.8838 52.8404C89.8838 70.5436 76.9949 83.8717 60.5603 85.4878ZM98.4081 68.8676C92.9475 74.5654 86.4536 78.8304 78.989 81.636C87.6091 75.0318 93.1852 64.5825 93.1852 52.8404C93.1852 40.052 86.5691 28.7931 76.612 22.3722C78.7777 23.0186 80.8642 23.7983 82.8715 24.7113C84.5882 25.491 86.2423 26.3673 87.8402 27.3403C87.8996 27.3736 87.959 27.4103 88.0184 27.4502C91.9241 29.846 95.4632 32.8115 98.5831 36.3068C105.166 43.6773 107.946 51.2844 108.593 53.2569C107.896 55.0995 105.008 61.9836 98.4081 68.8676Z" fill="white"/>
</svg>
