<svg width="128" height="99" viewBox="0 0 128 99" fill="none" xmlns="http://www.w3.org/2000/svg">
<g clip-path="url(#clip0_1114_1500)">
<path d="M13.411 12.5579H0.988281V0.1875H13.411V12.5579ZM4.22759 9.33221H10.1717V3.41315H4.22759V9.33221Z" fill="white"/>
<path d="M128.009 12.5579H115.586V0.1875H128.009V12.5579ZM118.825 9.33221H124.769V3.41315H118.825V9.33221Z" fill="white"/>
<path d="M13.411 98.9524H0.988281V86.582H13.411V98.9524ZM4.22759 95.7267H10.1717V89.8077H4.22759V95.7267Z" fill="white"/>
<path d="M9.49245 16.6992H4.90234V21.27H9.49245V16.6992Z" fill="white"/>
<path d="M9.49245 25.543H4.90234V30.1137H9.49245V25.543Z" fill="white"/>
<path d="M9.49245 34.3867H4.90234V38.9575H9.49245V34.3867Z" fill="white"/>
<path d="M9.49245 43.2305H4.90234V47.8012H9.49245V43.2305Z" fill="white"/>
<path d="M9.49245 52.0742H4.90234V56.645H9.49245V52.0742Z" fill="white"/>
<path d="M9.49245 60.918H4.90234V65.4887H9.49245V60.918Z" fill="white"/>
<path d="M9.49245 69.7617H4.90234V74.3325H9.49245V69.7617Z" fill="white"/>
<path d="M9.49245 78.6055H4.90234V83.1762H9.49245V78.6055Z" fill="white"/>
<path d="M124.09 16.6992H119.5V21.27H124.09V16.6992Z" fill="white"/>
<path d="M124.09 25.543H119.5V30.1137H124.09V25.543Z" fill="white"/>
<path d="M124.09 34.3867H119.5V38.9575H124.09V34.3867Z" fill="white"/>
<path d="M124.09 43.2305H119.5V47.8012H124.09V43.2305Z" fill="white"/>
<path d="M124.09 52.0742H119.5V56.645H124.09V52.0742Z" fill="white"/>
<path d="M124.09 60.918H119.5V65.4887H124.09V60.918Z" fill="white"/>
<path d="M124.09 69.7617H119.5V74.3325H124.09V69.7617Z" fill="white"/>
<path d="M124.09 78.6055H119.5V83.1762H124.09V78.6055Z" fill="white"/>
<path d="M128.009 98.9524H115.586V86.582H128.009V98.9524ZM118.825 95.7267H124.769V89.8077H118.825V95.7267Z" fill="white"/>
<path d="M18.5625 4.08551V8.65625H23.1526V4.08551H18.5625Z" fill="white"/>
<path d="M27.4414 4.08551V8.65625H32.0315V4.08551H27.4414Z" fill="white"/>
<path d="M36.3281 4.08551V8.65625H40.9182V4.08551H36.3281Z" fill="white"/>
<path d="M45.207 4.08551V8.65625H49.7971V4.08551H45.207Z" fill="white"/>
<path d="M54.0859 4.0855V8.65625H58.676V4.0855H54.0859Z" fill="white"/>
<path d="M62.9727 4.08551V8.65625H67.5628V4.08551H62.9727Z" fill="white"/>
<path d="M71.8516 4.08551V8.65625H76.4417V4.08551H71.8516Z" fill="white"/>
<path d="M80.6992 4.08551V8.65625H85.2893V4.08551H80.6992Z" fill="white"/>
<path d="M89.543 4.08551V8.65625H94.1331V4.08551H89.543Z" fill="white"/>
<path d="M98.3906 4.08551V8.65625H102.981V4.08551H98.3906Z" fill="white"/>
<path d="M107.234 4.0855V8.65625H111.824V4.0855H107.234Z" fill="white"/>
<path d="M18.5586 90.48V95.0508H23.1487V90.48H18.5586Z" fill="white"/>
<path d="M27.4375 90.4839V95.0547H32.0276V90.4839H27.4375Z" fill="white"/>
<path d="M36.3242 90.4839V95.0547H40.9143V90.4839H36.3242Z" fill="white"/>
<path d="M45.2031 90.4839V95.0547H49.7932V90.4839H45.2031Z" fill="white"/>
<path d="M54.082 90.4839V95.0547H58.6721V90.4839H54.082Z" fill="white"/>
<path d="M62.9688 90.48V95.0508H67.5589V90.48H62.9688Z" fill="white"/>
<path d="M71.8477 90.4839V95.0547H76.4378V90.4839H71.8477Z" fill="white"/>
<path d="M80.6953 90.4839V95.0547H85.2854V90.4839H80.6953Z" fill="white"/>
<path d="M89.5391 90.4839V95.0547H94.1292V90.4839H89.5391Z" fill="white"/>
<path d="M98.3867 90.4839V95.0547H102.977V90.4839H98.3867Z" fill="white"/>
<path d="M107.23 90.48V95.0508H111.821V90.48H107.23Z" fill="white"/>
<path d="M18.707 18.1289V81.0129H110.244V18.1289H18.707ZM21.9463 21.3546H107.004V50.7144C106.353 51.7756 102.745 57.3528 98.0151 58.0463C95.6925 58.3882 93.344 57.4495 91.0376 55.2561C90.082 54.3497 89.107 53.1981 88.0769 51.9821C85.1842 48.5629 81.9028 44.6889 77.7629 45.2566C75.382 45.5856 72.1816 48.021 68.4726 50.8402C64.5757 53.8046 59.7232 57.4947 57.1965 57.2883C53.9313 57.0173 51.0969 50.5305 48.5962 44.805C45.684 38.1473 42.9339 31.8573 38.3761 31.6637C35.9823 31.5605 32.0109 32.9185 25.2278 45.8372C24.0001 48.179 22.8825 50.5079 21.9463 52.5659V21.3546ZM21.9463 60.8139C21.9625 60.7816 21.9787 60.7462 21.9917 60.7107C26.8345 48.2403 34.3691 34.8829 38.1688 34.8829C38.1915 34.8829 38.2142 34.8829 38.2368 34.8861C40.7732 34.9926 43.4619 41.1471 45.6257 46.0953C48.6286 52.9659 51.7351 60.0688 56.9244 60.501C60.6918 60.8139 65.6511 57.0463 70.4389 53.4046C73.3607 51.1821 76.6713 48.6629 78.2067 48.4532C80.5844 48.1274 83.1305 51.1434 85.5988 54.0594C86.6419 55.2916 87.7173 56.5625 88.7993 57.5915C91.8701 60.5107 95.1354 61.7364 98.5043 61.2364C102.074 60.7074 105.002 58.2947 107.004 56.0851V63.2234C106.933 63.2331 106.862 63.246 106.787 63.2589C103.882 63.7492 97.0757 64.904 92.4144 63.9492C91.2547 63.7137 90.0626 63.4299 88.9094 63.1525C83.8755 61.9493 78.6699 60.701 73.0109 62.4461C65.1555 64.8685 53.8633 66.2749 45.7391 62.9589C41.4762 61.2171 35.8527 61.1848 29.0242 62.8654C26.138 63.575 23.6437 64.4492 21.9463 65.1105V60.8139ZM107.004 77.7872H21.9463V68.5942C25.2472 67.2168 36.9023 62.8396 44.5114 65.9427C48.9363 67.749 54.3233 68.449 60.5233 68.0264C66.4837 67.62 71.5046 66.2878 73.9697 65.5266C78.7768 64.046 83.3313 65.1363 88.1546 66.2878C89.3305 66.5717 90.5517 66.862 91.7632 67.1104C96.8554 68.1522 103.548 67.0749 107.004 66.491V77.7872Z" fill="white"/>
<path d="M81.4005 39.2259C77.6818 39.2259 74.6562 36.2132 74.6562 32.5134C74.6562 28.8135 77.6818 25.8008 81.4005 25.8008C85.1192 25.8008 88.1415 28.8135 88.1415 32.5134C88.1415 36.2132 85.116 39.2259 81.4005 39.2259ZM81.4005 29.0232C79.4699 29.0232 77.8956 30.5876 77.8956 32.5101C77.8956 34.4326 79.4666 35.9971 81.4005 35.9971C83.3344 35.9971 84.9022 34.4326 84.9022 32.5101C84.9022 30.5876 83.3311 29.0232 81.4005 29.0232Z" fill="white"/>
</g>
<defs>
<clipPath id="clip0_1114_1500">
<rect width="127.02" height="98.7661" fill="white" transform="translate(0.988281 0.1875)"/>
</clipPath>
</defs>
</svg>
